<?xml version="1.0" encoding="UTF-8" standalone="no"?>
<!-- Created with Inkscape (http://www.inkscape.org/) -->

<svg
   width="16"
   height="16"
   viewBox="0 0 16 16"
   version="1.1"
   id="svg1"
   xml:space="preserve"
   inkscape:version="1.4.2 (ebf0e940d0, 2025-05-08)"
   sodipodi:docname="logviewer.svg"
   inkscape:export-filename="logviewer.png"
   inkscape:export-xdpi="3"
   inkscape:export-ydpi="3"
   xmlns:inkscape="http://www.inkscape.org/namespaces/inkscape"
   xmlns:sodipodi="http://sodipodi.sourceforge.net/DTD/sodipodi-0.dtd"
   xmlns="http://www.w3.org/2000/svg"
   xmlns:svg="http://www.w3.org/2000/svg"><sodipodi:namedview
     id="namedview1"
     pagecolor="#505050"
     bordercolor="#ffffff"
     borderopacity="1"
     inkscape:showpageshadow="0"
     inkscape:pageopacity="0"
     inkscape:pagecheckerboard="1"
     inkscape:deskcolor="#505050"
     inkscape:document-units="px"
     inkscape:antialias-rendering="true"
     inkscape:zoom="22.627416"
     inkscape:cx="13.390835"
     inkscape:cy="14.075845"
     inkscape:window-width="1600"
     inkscape:window-height="872"
     inkscape:window-x="0"
     inkscape:window-y="0"
     inkscape:window-maximized="1"
     inkscape:current-layer="layer1"
     showgrid="false" /><defs
     id="defs1" /><g
     inkscape:label="Fire"
     inkscape:groupmode="layer"
     id="layer1"><path
       style="fill:#281000;fill-opacity:1;stroke:#000000;stroke-width:0.0939841;stroke-dasharray:none;stroke-opacity:1"
       d="m 11.989559,9.6601192 v 0.070906 c 0.651619,0 1.746131,-0.188441 2.244242,0.2127261 l -0.831203,0.07091 v 0.07091 c 0.804174,5.17e-4 0.928652,0.192514 0.831203,0.850907 -1.415675,-0.09531 -3.271151,-0.682108 -4.654726,-0.425454 v 0.141819 c 1.099412,0.453939 2.937177,0.522619 4.156006,0.56727 -0.337349,0.303676 -0.525603,0.314 -0.997441,0.283636 v 0.07091 l 0.581839,0.07091 -0.166241,0.63818 -1.163679,-0.212726 v 0.07091 l 1.08056,0.212728 -0.166241,0.709089 -1.329921,-0.425455 v 0.07091 c 0.642978,0.228066 1.320572,0.319238 1.329921,0.992724 -0.709986,-0.260994 -1.708056,-1.051262 -2.493603,-0.921814 0.194649,0.319616 0.551213,0.425697 0.914321,0.5856 0.737093,0.324592 2.087575,1.335087 2.90587,0.801828 1.036478,-0.675443 1.706117,-2.709795 0.252696,-3.23106 C 14.916406,9.3840765 13.366313,9.2625113 11.989559,9.6601035 M 2.5138572,10.79466 c -2.14210853,0.03892 -1.3548362,2.833542 0.083182,3.332061 0.7526646,0.260927 1.7482363,-0.429967 2.4104219,-0.696616 0.4861036,-0.195746 1.1555292,-0.368983 1.4130387,-0.791814 l -0.9974405,0.212726 v -0.07091 l 0.2493601,-0.07091 v -0.07091 L 3.7606592,13.134653 C 3.728504,12.497486 3.5292181,11.815057 3.0956973,11.291023 L 4.758101,11.078295 4.5087394,10.936478 v -0.07091 c 0.8564112,-4.61e-4 2.0498327,-0.03543 2.8260824,-0.354544 v -0.14182 C 5.9296207,10.093725 4.2090613,10.723618 2.7632178,10.723752 2.7670806,9.5705791 3.4651496,10.031573 4.4256177,9.9437543 3.5602318,9.1869928 2.2289505,9.7365204 2.5138572,10.79466 m 6.3171275,-0.779997 c -0.3170013,0.605863 0.4320829,1.729432 0.6649616,2.339993 L 8.8309847,11.007387 h -0.08312 l 0.3324796,1.134541 -1.2468016,-0.07091 0.1662412,-0.850907 h -0.083122 c -0.15256,0.462053 -0.1932837,0.849086 -0.7480814,1.063634 0.3141043,-0.572835 1.0113403,-1.569048 0.8312036,-2.198176 -0.5289112,0.242688 -0.676146,1.030037 -0.8791119,1.489087 -0.4310518,0.974912 -1.1887364,1.97363 -0.5037216,2.978171 C 7.6988338,16.139358 10.4704,15.159188 10.228696,13.418286 10.155016,12.887564 9.8803335,12.364378 9.6907886,11.858291 9.4760577,11.284954 9.362959,10.432533 8.8309846,10.014661 m -5.9015292,0.07091 v 0.07091 l 1.1636829,0.141814 -1.1636828,-0.212727 m 5.4028078,0.496362 v 1.205451 h 0.08312 l -0.08312,-1.205451 m -3.8235239,0.354545 v 0.07091 l -1.5792839,0.141813 1.5792839,-0.212726 m -2.3269783,0.277726 c 0.8563512,0.061 1.0629775,1.365487 1.1394363,1.920449 0.033926,0.246224 0.02821,0.735522 -0.3953953,0.726708 -0.8464297,-0.01761 -1.2364906,-1.386579 -1.2428241,-1.932159 -0.00347,-0.298363 0.00405,-0.750239 0.4987831,-0.714998 m 8.9765849,-0.065 0.997441,0.283635 -0.997441,-0.283635 m 3.316082,0.206848 c 0.392773,0.0305 0.430317,0.45813 0.420733,0.714998 -0.01963,0.526138 -0.408992,1.923949 -1.232115,1.923949 -0.378815,0 -0.352318,-0.505746 -0.329402,-0.718499 0.05451,-0.506054 0.26832,-1.988203 1.140784,-1.920448 M 1.9320146,11.503779 c -0.3797064,0.674038 0.1095079,1.98376 0.9974409,2.198175 C 2.3325178,12.884218 2.1830431,12.394705 1.9320146,11.503783 m 2.4936031,0.283635 0.7480811,-0.212727 c -0.297206,-0.08992 -0.5715164,-0.0071 -0.7480811,0.212727 m 9.8912933,-0.283635 v 0.07091 c 0.882433,0.678311 -0.369253,1.640828 -0.58184,2.339994 0.626826,-0.273384 1.709163,-2.251831 0.58184,-2.410902 m -11.8861759,0.07091 c 0.3065612,0.634371 0.4798712,1.006162 0.4156016,1.701812 h 0.083119 C 3.1917849,12.677893 3.0166407,11.989132 2.4307353,11.574698 M 13.65195,13.347399 h 0.08312 l 0.415599,-1.489086 c -0.59848,0.265454 -0.673949,0.983351 -0.49872,1.489086 M 2.2644969,11.929215 c -0.1066957,0.316922 -0.090153,0.652481 0.2493603,0.850907 L 2.2644969,11.929215 m 1.6624005,0.709089 v 0.0709 L 5.92178,12.141931 3.9268974,12.638293 m 10.3068946,-0.354544 -0.166241,0.425453 h 0.08312 l 0.08312,-0.425453 m -6.483367,0.141815 v 0.07091 c -1.4772432,0.962959 -0.7220859,2.693637 1.1636786,2.269084 v -0.07091 C 7.1069507,14.888463 6.2497319,13.15212 8.0829031,12.496473 L 7.833543,12.425563 c 1.7024678,-0.603751 2.848149,1.892923 1.080498,2.509223 -1.9302648,0.672993 -3.0463586,-1.802291 -1.163616,-2.509223 m -0.1662426,0.70909 c 0.334754,-0.133268 0.7138514,-0.291842 1.0769695,-0.12907 0.67723,0.303575 0.503541,1.271122 -0.3288886,1.210648 -0.3211921,-0.02334 -0.5619593,-0.247745 -0.8311998,-0.37249 0.2331563,0.97687 1.8618544,0.659715 1.8052339,-0.283636 C 9.2644794,12.863332 7.8786304,12.3388 7.5841824,13.134653 M 5.4230593,12.851017 v 0.07091 l -1.6624001,0.638176 c 0.2990937,-0.397009 1.1324022,-0.628739 1.6624001,-0.709088 m 2.909204,0.567271 -0.083119,0.212727 H 8.4985052 L 8.3322633,13.418286 m 1.163683,0.709089 -0.5818427,0.496361 v 0.07091 c 0.3150152,-0.09219 0.6310078,-0.253612 0.5818427,-0.56727"
       id="path1"
       sodipodi:nodetypes="cccccccccccccccccccccsscccsscccccccccccccccccccccccccssssccccccccccccccssccccccsssccccccccccccccccccccccccccccccccccccsccsscsccccccccccccc" /></g><g
     inkscape:groupmode="layer"
     id="layer2"
     inkscape:label="Java"
     style="display:inline"><g
       id="g1"
       transform="matrix(0.08552211,0,0,0.08473184,3.0331979,-1.0404315)"
       style="display:inline;stroke-width:1;stroke-dasharray:none"><path
         fill="#0074bd"
         d="m 47.617,98.12 c 0,0 -4.767,2.774 3.397,3.71 9.892,1.13 14.947,0.968 25.845,-1.092 0,0 2.871,1.795 6.873,3.351 -24.439,10.47 -55.308,-0.607 -36.115,-5.969 z M 44.629,84.455 c 0,0 -5.348,3.959 2.823,4.805 10.567,1.091 18.91,1.18 33.354,-1.6 0,0 1.993,2.025 5.132,3.131 -29.542,8.64 -62.446,0.68 -41.309,-6.336 z"
         id="path1-5"
         style="fill:#ff1015;fill-opacity:1;stroke:#000000;stroke-width:1.10406;stroke-linecap:round;stroke-linejoin:round;stroke-dasharray:none;stroke-opacity:1" /><path
         fill="#ea2d2e"
         d="m 69.802,65.560584 c 6.025,4.67621 -1.58,8.880416 -1.58,8.880416 0,0 15.289,-5.320832 8.269,-11.986876 -6.559,-6.213594 -11.587,-9.299825 15.635,-19.945536 0,6.74e-4 -42.731,7.194688 -22.324,23.051996 z"
         id="path2"
         style="fill:#ff1015;fill-opacity:1;stroke:#000000;stroke-width:1.10406;stroke-linecap:round;stroke-linejoin:round;stroke-dasharray:none;stroke-opacity:1" /><path
         fill="#0074bd"
         d="m 102.123,108.229 c 0,0 3.529,2.91 -3.888,5.159 -14.102,4.272 -58.706,5.56 -71.094,0.171 -4.451,-1.938 3.899,-4.625 6.526,-5.192 2.739,-0.593 4.303,-0.485 4.303,-0.485 -4.953,-3.487 -32.013,6.85 -13.743,9.815 49.821,8.076 90.817,-3.637 77.896,-9.468 z M 49.912,70.294 c 0,0 -22.686,5.389 -8.033,7.348 6.188,0.828 18.518,0.638 30.011,-0.326 9.39,-0.789 18.813,-2.474 18.813,-2.474 0,0 -3.308,1.419 -5.704,3.053 C 61.957,83.956 17.455,81.133 30.268,74.937 41.1,69.698 49.912,70.294 49.912,70.294 Z m 40.697,22.747 c 23.421,-12.167 12.591,-23.86 5.032,-22.285 -1.848,0.385 -2.677,0.72 -2.677,0.72 0,0 0.688,-1.079 2,-1.543 14.953,-5.255 26.451,15.503 -4.823,23.725 0,-0.002 0.359,-0.327 0.468,-0.617 z"
         id="path3"
         style="fill:#ff1015;fill-opacity:1;stroke:#000000;stroke-width:1.10406;stroke-linecap:round;stroke-linejoin:round;stroke-dasharray:none;stroke-opacity:1" /><path
         fill="#ea2d2e"
         d="m 76.491,25.316184 c 0,0 12.968,8.749603 -12.303,22.199691 C 43.922,58.308581 59.567,64.460815 64.181,71.492999 52.35,64.296288 43.672,57.959973 49.493,52.063296 58.041,43.409441 81.722,39.211978 76.491,25.316184 Z"
         id="path4"
         style="fill:#ff1015;fill-opacity:1;stroke:#000000;stroke-width:1.10406;stroke-linecap:round;stroke-linejoin:round;stroke-dasharray:none;stroke-opacity:1" /><path
         fill="#0074bd"
         d="m 52.214,126.021 c 22.476,1.437 57,-0.8 57.817,-11.436 0,0 -1.571,4.032 -18.577,7.231 -19.186,3.612 -42.854,3.191 -56.887,0.874 0,0.001 2.875,2.381 17.647,3.331 z"
         id="path5"
         style="fill:#ff1015;fill-opacity:1;stroke:#000000;stroke-width:1.10406;stroke-linecap:round;stroke-linejoin:round;stroke-dasharray:none;stroke-opacity:1" /></g></g></svg>
