<?xml version="1.0" encoding="UTF-8" standalone="no"?>
<!-- Created with Inkscape (http://www.inkscape.org/) -->

<svg
   width="32"
   height="32"
   viewBox="0 0 32 32"
   version="1.1"
   id="svg1"
   xml:space="preserve"
   inkscape:version="1.4.2 (ebf0e940d0, 2025-05-08)"
   sodipodi:docname="logviewer@2x.svg"
   inkscape:export-filename="logviewer.png"
   inkscape:export-xdpi="3"
   inkscape:export-ydpi="3"
   xmlns:inkscape="http://www.inkscape.org/namespaces/inkscape"
   xmlns:sodipodi="http://sodipodi.sourceforge.net/DTD/sodipodi-0.dtd"
   xmlns="http://www.w3.org/2000/svg"
   xmlns:svg="http://www.w3.org/2000/svg"><sodipodi:namedview
     id="namedview1"
     pagecolor="#505050"
     bordercolor="#ffffff"
     borderopacity="1"
     inkscape:showpageshadow="0"
     inkscape:pageopacity="0"
     inkscape:pagecheckerboard="1"
     inkscape:deskcolor="#505050"
     inkscape:document-units="px"
     inkscape:antialias-rendering="true"
     inkscape:zoom="11.313708"
     inkscape:cx="18.959301"
     inkscape:cy="20.550291"
     inkscape:window-width="1600"
     inkscape:window-height="872"
     inkscape:window-x="0"
     inkscape:window-y="0"
     inkscape:window-maximized="1"
     inkscape:current-layer="layer1"
     showgrid="false" /><defs
     id="defs1" /><g
     inkscape:label="Fire"
     inkscape:groupmode="layer"
     id="layer1"><path
       style="fill:#281000;fill-opacity:1;stroke:#000000;stroke-width:0.2;stroke-opacity:1;stroke-dasharray:none"
       d="m 24.353315,19.540407 v 0.150896 c 1.38666,0 3.715807,-0.401006 4.775799,0.452686 l -1.76882,0.150898 v 0.150894 c 1.7113,0.0011 1.976191,0.409673 1.76882,1.810748 -3.01259,-0.20283 -6.961085,-1.451542 -9.905365,-0.905375 v 0.301794 c 2.339575,0.965993 6.250381,1.112145 8.844076,1.207164 -0.717886,0.646229 -1.118494,0.668199 -2.122578,0.603582 v 0.150896 l 1.238168,0.150895 -0.353764,1.358062 -2.476336,-0.452687 v 0.150895 l 2.299457,0.452688 -0.353765,1.508957 -2.830104,-0.905375 v 0.150896 c 1.368273,0.485328 2.810208,0.679344 2.830104,2.11254 -1.510868,-0.555402 -3.634784,-2.237109 -5.306445,-1.961644 0.414219,0.680153 1.172993,0.905894 1.945697,1.246171 1.568549,0.69074 4.442405,2.841095 6.183755,1.706308 2.205649,-1.437357 3.630658,-5.766504 0.537744,-6.875767 0.921954,-3.303513 -2.376679,-3.562207 -5.306443,-2.716122 m -20.16451,2.414331 c -4.55845556,0.08284 -2.8831223,6.029841 0.1770132,7.0907 1.6016873,0.555259 3.7202865,-0.91498 5.1294324,-1.482414 1.0344394,-0.416552 2.4589924,-0.785205 3.0069784,-1.684999 l -2.122576,0.452686 v -0.150894 l 0.530644,-0.150896 v -0.150896 l -4.0682691,1.05627 c -0.068427,-1.355907 -0.492512,-2.80813 -1.4150541,-3.923286 l 3.5376329,-0.45269 -0.5306472,-0.30179 v -0.150897 c 1.8224625,-9.82e-4 4.3620905,-0.07538 6.0139675,-0.754478 v -0.30179 c -2.9903,-0.586232 -6.6516894,0.754193 -9.728477,0.75448 0.00822,-2.45398 1.4937268,-1.472972 3.5376245,-1.659855 C 6.4155137,18.533583 3.582517,19.702991 4.188805,21.954738 m 13.44299,-1.659851 c -0.674586,1.289289 0.919482,3.680268 1.415054,4.979556 l -1.415054,-2.867019 h -0.17688 l 0.707524,2.414331 -2.653222,-0.150895 0.353765,-1.810748 h -0.176886 c -0.324651,0.983258 -0.411312,1.806875 -1.591934,2.263435 0.668421,-1.219004 2.152155,-3.338968 1.76882,-4.677766 -1.125535,0.516443 -1.438854,2.191942 -1.87077,3.168809 -0.917288,2.074635 -2.529658,4.19993 -1.071931,6.337617 2.302272,3.376172 8.200229,1.290349 7.685877,-2.41433 -0.156797,-1.129387 -0.741324,-2.242739 -1.14468,-3.319704 -0.456953,-1.220074 -0.697629,-3.034046 -1.829683,-3.923286 M 5.0732074,20.445781 v 0.150896 l 2.4763434,0.30179 -2.4763434,-0.452686 m 11.4972976,1.05627 v 2.565225 h 0.176881 l -0.176881,-2.565225 m -8.1365455,0.754478 v 0.150895 l -3.3607521,0.301791 3.3607521,-0.452686 m -4.9518627,0.591006 c 1.8223347,0.129805 2.2620404,2.905787 2.4247464,4.08676 0.072194,0.523971 0.060033,1.565207 -0.8414102,1.546451 -1.8012216,-0.03749 -2.6312801,-2.950672 -2.6447579,-4.111678 -0.00738,-0.634923 0.00862,-1.596525 1.0614217,-1.521533 m 19.1023772,-0.13832 2.122578,0.603583 -2.122578,-0.603583 m 7.056698,0.440177 c 0.835829,0.0649 0.915725,0.974911 0.895329,1.521532 -0.04178,1.119634 -0.870345,4.094208 -2.62197,4.094208 -0.806126,0 -0.74974,-1.076239 -0.700973,-1.528983 0.116005,-1.076895 0.570992,-4.230941 2.427614,-4.086757 M 2.9506307,23.463758 c -0.8080239,1.434369 0.2330352,4.221487 2.1225767,4.677768 -1.2702969,-1.740163 -1.5883825,-2.781857 -2.1225767,-4.67776 m 5.3064438,0.603582 1.5919338,-0.452688 c -0.6324612,-0.191349 -1.2162,-0.01518 -1.5919338,0.452688 M 29.305973,23.463766 v 0.150894 c 1.877837,1.443461 -0.78578,3.491719 -1.238169,4.979559 1.333898,-0.581767 3.637136,-4.791946 1.238169,-5.130453 M 4.0119194,23.61466 c 0.6523689,1.349957 1.0211766,2.141137 0.8844094,3.621496 H 5.0732074 C 5.63145,25.962284 5.2587381,24.496586 4.0119194,23.61466 M 27.89092,27.387009 h 0.176884 L 28.952209,24.2182 c -1.27358,0.564891 -1.434181,2.092594 -1.061289,3.168809 M 3.6581606,24.369095 C 3.4311097,25.043514 3.4663123,25.75759 4.188805,26.179844 L 3.6581606,24.369095 m 3.537626,1.508957 v 0.150869 l 4.2451554,-1.207166 -4.2451554,1.05627 M 29.129093,25.123547 28.77533,26.028921 h 0.176879 l 0.176884,-0.905374 M 15.33234,25.425338 v 0.150895 c -3.143607,2.049199 -1.536615,5.732121 2.476335,4.828662 v -0.150897 c -3.845663,0.412444 -5.669844,-3.282532 -1.768814,-4.677765 l -0.530644,-0.150895 c 3.62289,-1.284796 6.060926,4.028183 2.299325,5.339682 -4.107648,1.432145 -6.482721,-3.835315 -2.476202,-5.339682 m -0.353768,1.508957 c 0.712364,-0.283598 1.519092,-0.621046 2.291816,-0.274664 1.441161,0.646014 1.071546,2.704977 -0.699883,2.576288 -0.683504,-0.04966 -1.195862,-0.527209 -1.768812,-0.792669 0.496162,2.078801 3.962069,1.40389 3.841578,-0.603582 -0.08899,-1.48275 -3.038107,-2.598967 -3.664699,-0.905373 m -4.598919,-0.603584 v 0.150896 l -3.5376251,1.358061 c 0.6364782,-0.844846 2.4097776,-1.337972 3.5376251,-1.508957 m 6.190852,1.207166 -0.176878,0.452687 h 0.530645 l -0.353767,-0.452687 m 2.476344,1.508958 -1.238174,1.056268 v 0.150895 c 0.670359,-0.196186 1.342799,-0.539693 1.238174,-1.207163"
       id="path1"
       sodipodi:nodetypes="cccccccccccccccccccccsscccsscccccccccccccccccccccccccssssccccccccccccccssccccccsssccccccccccccccccccccccccccccccccccccsccsscsccccccccccccc" /></g><g
     inkscape:groupmode="layer"
     id="layer2"
     inkscape:label="Java"
     style="display:inline"><g
       id="g1"
       transform="matrix(0.18199299,0,0,0.18031127,5.2939737,-3.2306069)"
       style="display:inline;stroke-width:1;stroke-dasharray:none"><path
         fill="#0074bd"
         d="m 47.617,98.12 c 0,0 -4.767,2.774 3.397,3.71 9.892,1.13 14.947,0.968 25.845,-1.092 0,0 2.871,1.795 6.873,3.351 -24.439,10.47 -55.308,-0.607 -36.115,-5.969 z M 44.629,84.455 c 0,0 -5.348,3.959 2.823,4.805 10.567,1.091 18.91,1.18 33.354,-1.6 0,0 1.993,2.025 5.132,3.131 -29.542,8.64 -62.446,0.68 -41.309,-6.336 z"
         id="path1-5"
         style="fill:#ff1015;fill-opacity:1;stroke-width:1.10405632;stroke-dasharray:none;stroke:#000000;stroke-opacity:1;stroke-linecap:round;stroke-linejoin:round" /><path
         fill="#ea2d2e"
         d="m 69.802,65.560584 c 6.025,4.67621 -1.58,8.880416 -1.58,8.880416 0,0 15.289,-5.320832 8.269,-11.986876 -6.559,-6.213594 -11.587,-9.299825 15.635,-19.945536 0,6.74e-4 -42.731,7.194688 -22.324,23.051996 z"
         id="path2"
         style="fill:#ff1015;fill-opacity:1;stroke-width:1.10405632;stroke-dasharray:none;stroke:#000000;stroke-opacity:1;stroke-linecap:round;stroke-linejoin:round" /><path
         fill="#0074bd"
         d="m 102.123,108.229 c 0,0 3.529,2.91 -3.888,5.159 -14.102,4.272 -58.706,5.56 -71.094,0.171 -4.451,-1.938 3.899,-4.625 6.526,-5.192 2.739,-0.593 4.303,-0.485 4.303,-0.485 -4.953,-3.487 -32.013,6.85 -13.743,9.815 49.821,8.076 90.817,-3.637 77.896,-9.468 z M 49.912,70.294 c 0,0 -22.686,5.389 -8.033,7.348 6.188,0.828 18.518,0.638 30.011,-0.326 9.39,-0.789 18.813,-2.474 18.813,-2.474 0,0 -3.308,1.419 -5.704,3.053 C 61.957,83.956 17.455,81.133 30.268,74.937 41.1,69.698 49.912,70.294 49.912,70.294 Z m 40.697,22.747 c 23.421,-12.167 12.591,-23.86 5.032,-22.285 -1.848,0.385 -2.677,0.72 -2.677,0.72 0,0 0.688,-1.079 2,-1.543 14.953,-5.255 26.451,15.503 -4.823,23.725 0,-0.002 0.359,-0.327 0.468,-0.617 z"
         id="path3"
         style="fill:#ff1015;fill-opacity:1;stroke-width:1.10405632;stroke-dasharray:none;stroke:#000000;stroke-opacity:1;stroke-linecap:round;stroke-linejoin:round" /><path
         fill="#ea2d2e"
         d="m 76.491,25.316184 c 0,0 12.968,8.749603 -12.303,22.199691 C 43.922,58.308581 59.567,64.460815 64.181,71.492999 52.35,64.296288 43.672,57.959973 49.493,52.063296 58.041,43.409441 81.722,39.211978 76.491,25.316184 Z"
         id="path4"
         style="fill:#ff1015;fill-opacity:1;stroke-width:1.10405632;stroke-dasharray:none;stroke:#000000;stroke-opacity:1;stroke-linecap:round;stroke-linejoin:round" /><path
         fill="#0074bd"
         d="m 52.214,126.021 c 22.476,1.437 57,-0.8 57.817,-11.436 0,0 -1.571,4.032 -18.577,7.231 -19.186,3.612 -42.854,3.191 -56.887,0.874 0,0.001 2.875,2.381 17.647,3.331 z"
         id="path5"
         style="fill:#ff1015;fill-opacity:1;stroke-width:1.10405632;stroke-dasharray:none;stroke:#000000;stroke-opacity:1;stroke-linecap:round;stroke-linejoin:round" /></g></g></svg>
